<?xml version="1.0" encoding="utf-8"?>
<!-- Generator: Adobe Illustrator 25.4.1, SVG Export Plug-In . SVG Version: 6.00 Build 0)  -->
<svg version="1.0" id="katman_1" xmlns="http://www.w3.org/2000/svg" xmlns:xlink="http://www.w3.org/1999/xlink" x="0px" y="0px"
	 viewBox="0 0 480 342" style="enable-background:new 0 0 480 342;" xml:space="preserve">
<style type="text/css">
	.st0{fill:#FB651E;}
	.st1{fill:#FFFFFF;}
</style>
<g>
	<rect x="112" y="43" class="st0" width="256" height="256"/>
	<path class="st1" d="M231.4,187.7l-43.9-82.3h20.1l25.8,52.1c0.4,0.9,0.9,1.9,1.4,2.9c0.5,1,1,2,1.4,3.1c0.3,0.4,0.5,0.8,0.6,1.1
		s0.3,0.6,0.4,0.9c0.7,1.3,1.3,2.6,1.8,3.9c0.5,1.3,1,2.4,1.4,3.5c1.1-2.3,2.2-4.7,3.5-7.3c1.3-2.6,2.6-5.3,3.9-8.1l26.2-52.1h18.7
		l-44.3,83.3v53.1h-16.9V187.7z"/>
</g>
</svg>
